<?xml version="1.0" encoding="utf-8"?>
<!-- Generator: Adobe Illustrator 15.0.0, SVG Export Plug-In . SVG Version: 6.00 Build 0)  -->
<!DOCTYPE svg PUBLIC "-//W3C//DTD SVG 1.1//EN" "http://www.w3.org/Graphics/SVG/1.1/DTD/svg11.dtd">
<svg version="1.1" id="Calque_1" xmlns="http://www.w3.org/2000/svg" xmlns:xlink="http://www.w3.org/1999/xlink" x="0px" y="0px"
	 width="200px" height="47px" viewBox="0 0 200 47" enable-background="new 0 0 200 47" xml:space="preserve">
<g>
	<g>
		<defs>
			<path id="SVGID_1_" d="M58.301,13.108v25.343l8.48,0.025c0-2.865,0.023-29.11,0.023-29.11L58.301,13.108z"/>
		</defs>
		<clipPath id="SVGID_2_">
			<use xlink:href="#SVGID_1_"  overflow="visible"/>
		</clipPath>
		
			<linearGradient id="SVGID_3_" gradientUnits="userSpaceOnUse" x1="-41.7349" y1="165.2563" x2="-40.7238" y2="165.2563" gradientTransform="matrix(197.3557 2.0002 2.0002 -197.3557 7924.9263 32721.2773)">
			<stop  offset="0" style="stop-color:#81C8C0"/>
			<stop  offset="1" style="stop-color:#009FC6"/>
		</linearGradient>
		<polygon clip-path="url(#SVGID_2_)" fill="url(#SVGID_3_)" points="58.301,9.28 67.099,9.369 66.803,38.561 58.005,38.473 		"/>
	</g>
	<g>
		<defs>
			<path id="SVGID_4_" d="M66.063,20.237c0,11.218,7.442,19.098,18.101,19.098c3.63,0,7.083-0.781,10.24-2.626
				c0.655-0.355,1.19-0.782,2.44-1.562l0.12-0.072l-2.979-6.604l-0.653,0.357c-2.084,1.137-2.979,1.561-4.762,1.985
				c-1.31,0.355-2.619,0.568-3.931,0.568c-6.014,0-10.359-4.826-10.359-11.57c0-7.1,4.763-11.854,11.847-11.854
				c1.729,0,3.632,0.282,5.479,0.852c0.417,0.069,0.953,0.212,1.727,0.496l0.597,0.213l2.262-6.815l-0.18-0.072l-0.594-0.285
				c-3.632-1.702-6.43-2.057-9.883-2.057C74.28,0.289,66.063,8.666,66.063,20.237"/>
		</defs>
		<clipPath id="SVGID_5_">
			<use xlink:href="#SVGID_4_"  overflow="visible"/>
		</clipPath>
		
			<linearGradient id="SVGID_6_" gradientUnits="userSpaceOnUse" x1="-41.7378" y1="165.2612" x2="-40.7221" y2="165.2612" gradientTransform="matrix(197.3297 2 2 -197.3297 7924.3745 32713.3477)">
			<stop  offset="0" style="stop-color:#81C8C0"/>
			<stop  offset="1" style="stop-color:#009FC6"/>
		</linearGradient>
		<polygon clip-path="url(#SVGID_5_)" fill="url(#SVGID_6_)" points="66.068,-0.024 97.359,0.293 96.961,39.65 65.667,39.331 		"/>
	</g>
	<g>
		<defs>
			<polygon id="SVGID_7_" points="116.682,1.14 104.204,15.623 104.204,1.14 95.758,1.14 95.758,38.553 104.204,38.553 
				104.204,21.73 117.243,38.553 128.236,38.553 111.655,18.533 127.24,1.14 			"/>
		</defs>
		<clipPath id="SVGID_8_">
			<use xlink:href="#SVGID_7_"  overflow="visible"/>
		</clipPath>
		
			<linearGradient id="SVGID_9_" gradientUnits="userSpaceOnUse" x1="-41.7373" y1="165.2563" x2="-40.7224" y2="165.2563" gradientTransform="matrix(197.3242 1.9999 1.9999 -197.3242 7924.1616 32711.5566)">
			<stop  offset="0" style="stop-color:#81C8C0"/>
			<stop  offset="1" style="stop-color:#009FC6"/>
		</linearGradient>
		<polygon clip-path="url(#SVGID_8_)" fill="url(#SVGID_9_)" points="95.761,0.812 128.612,1.144 128.232,38.883 95.378,38.549 		
			"/>
	</g>
	<g>
		<defs>
			<polygon id="SVGID_10_" points="124.035,1.14 123.974,38.553 148.378,38.553 148.378,31.242 132.358,31.242 132.358,22.581 
				146.577,22.581 146.577,15.766 132.358,15.766 132.358,8.098 147.387,8.098 147.387,1.14 			"/>
		</defs>
		<clipPath id="SVGID_11_">
			<use xlink:href="#SVGID_10_"  overflow="visible"/>
		</clipPath>
		
			<linearGradient id="SVGID_12_" gradientUnits="userSpaceOnUse" x1="-41.7373" y1="165.2593" x2="-40.7215" y2="165.2593" gradientTransform="matrix(197.341 2.0001 2.0001 -197.341 7924.7046 32714.7207)">
			<stop  offset="0" style="stop-color:#81C8C0"/>
			<stop  offset="1" style="stop-color:#009FC6"/>
		</linearGradient>
		<polygon clip-path="url(#SVGID_11_)" fill="url(#SVGID_12_)" points="123.977,0.894 148.758,1.144 148.376,38.799 123.594,38.549 
					"/>
	</g>
	<g>
		<defs>
			<polygon id="SVGID_13_" points="145.367,1.14 145.367,8.098 156.363,8.098 156.363,38.553 164.682,38.553 164.682,8.098 
				175.487,8.098 175.487,1.14 			"/>
		</defs>
		<clipPath id="SVGID_14_">
			<use xlink:href="#SVGID_13_"  overflow="visible"/>
		</clipPath>
		
			<linearGradient id="SVGID_15_" gradientUnits="userSpaceOnUse" x1="-41.7373" y1="165.2573" x2="-40.7212" y2="165.2573" gradientTransform="matrix(197.3427 2.0001 2.0001 -197.3427 7924.6499 32714.375)">
			<stop  offset="0" style="stop-color:#81C8C0"/>
			<stop  offset="1" style="stop-color:#009FC6"/>
		</linearGradient>
		<polygon clip-path="url(#SVGID_14_)" fill="url(#SVGID_15_)" points="145.37,0.835 175.866,1.144 175.484,38.859 144.988,38.549 
					"/>
	</g>
	<polyline fill="#F8B334" points="66.829,1.031 58.273,1.031 58.273,11.355 66.829,7.395 	"/>
	<polygon fill="#F8B334" points="192.002,35.083 194.216,46.71 184.833,40.871 175.375,46.71 177.587,35.251 169.541,27.214 
		180.256,25.926 184.781,15.152 189.163,25.872 200,27.214 	"/>
	<polygon fill="#FFFFFF" points="183.363,36.562 180.495,32.423 180.495,36.562 179.015,36.562 179.015,29.636 180.471,29.636 
		183.375,33.829 183.375,29.636 184.842,29.636 184.842,36.562 	"/>
	<path fill="#FFFFFF" d="M190.503,35.932c-0.247,0.143-0.351,0.224-0.481,0.288c-0.622,0.342-1.306,0.486-2.021,0.486
		c-2.104,0-3.575-1.459-3.575-3.532c0-2.143,1.624-3.693,3.845-3.693c0.682,0,1.233,0.064,1.951,0.381l0.118,0.052l0.035,0.014
		l-0.448,1.259l-0.115-0.037c-0.154-0.053-0.259-0.078-0.343-0.092c-0.364-0.106-0.741-0.157-1.08-0.157
		c-1.4,0-2.339,0.878-2.339,2.193c0,1.247,0.857,2.141,2.043,2.141c0.26,0,0.52-0.037,0.776-0.104
		c0.354-0.079,0.53-0.157,0.942-0.367l0.128-0.067l0.59,1.226L190.503,35.932z"/>
	<path fill="#F8B334" d="M13.186,32.06c5.964,1.513,13.189-2.939,18.65-13.022c0.335-0.588,0.924-0.923,1.681-0.672
		c0.84,0.336,0.923,1.176,0.587,1.849c-5.208,11.007-14.87,19.408-25.119,18.482c-7.812-0.588-11.257-8.232-7.393-18.231
		C5.373,10.384,14.865,2.151,22.679,2.151c5.292,0,7.478,3.698,7.056,7.562c-0.25,2.268-1.511,5.88-5.712,8.905
		c-5.713,4.116-11.509,5.124-13.441,5.292C9.489,28.447,10.497,31.387,13.186,32.06 M22.679,13.242
		c1.259-1.596,1.764-2.941,1.764-3.866c0-1.68-1.427-2.1-3.528-0.755c-3.108,2.015-6.806,5.965-8.989,10.838
		c-0.169,0.251-0.251,0.504-0.336,0.673C13.942,19.458,19.15,17.861,22.679,13.242"/>
	<g>
		<defs>
			<path id="SVGID_16_" d="M27.765,0.991c3.028,1.132,4.287,3.982,3.993,6.957h6.969v30.454h8.321V7.948h9.439V0.991H27.765z"/>
		</defs>
		<clipPath id="SVGID_17_">
			<use xlink:href="#SVGID_16_"  overflow="visible"/>
		</clipPath>
		
			<linearGradient id="SVGID_18_" gradientUnits="userSpaceOnUse" x1="-41.7383" y1="165.2544" x2="-40.7249" y2="165.2544" gradientTransform="matrix(197.1086 1.9977 1.9977 -197.1086 7915.5278 32676.0938)">
			<stop  offset="0" style="stop-color:#81C8C0"/>
			<stop  offset="1" style="stop-color:#009FC6"/>
		</linearGradient>
		<polygon clip-path="url(#SVGID_17_)" fill="url(#SVGID_18_)" points="27.768,0.699 56.867,0.995 56.484,38.694 27.386,38.398 		
			"/>
	</g>
</g>
</svg>
